<svg width="266" height="166" viewBox="0 0 266 166" fill="none" xmlns="http://www.w3.org/2000/svg">
<ellipse cx="133" cy="83" rx="133" ry="83" fill="url(#paint0_linear)"/>
<path d="M67.5559 69.7766C66.8123 69.844 66.1061 69.734 65.4375 69.4465C64.7953 69.1566 64.2221 68.74 63.7176 68.1966C63.2687 67.675 62.8464 67.0037 62.4507 66.1828C62.0526 65.3352 61.7317 64.4539 61.4881 63.5389C61.0274 62.0008 60.6284 59.9619 60.2911 57.4219C60.2092 56.8135 60.1008 55.7657 59.966 54.2784L59.7386 51.7687C59.7001 51.0493 59.646 50.3044 59.5762 49.5343C59.4342 47.9674 59.4152 46.724 59.5193 45.8042C59.4035 45.413 59.3264 45.005 59.2879 44.5801C59.1435 42.9866 59.6243 41.6444 60.7303 40.5534C61.8364 39.4625 63.3056 38.834 65.1381 38.6679C65.8286 38.6053 66.4828 38.7334 67.1008 39.0523C67.7188 39.3712 68.053 39.8094 68.1036 40.3672C68.1277 40.6327 68.0407 40.8548 67.8427 41.0334C67.6446 41.212 67.3863 41.3158 67.0676 41.3447C66.802 41.3687 66.5063 41.3554 66.1804 41.3046C65.881 41.2514 65.6843 41.1487 65.5901 40.9966L65.0723 41.0435L65.065 40.9639C64.0824 41.0529 63.2784 41.34 62.6529 41.8251C62.2062 42.2137 61.8861 42.8184 61.6928 43.6392C61.613 43.9409 61.567 44.32 61.5548 44.7763C61.5426 45.2325 61.5534 45.6466 61.5871 46.0184C61.5798 46.2333 61.605 46.6594 61.6628 47.2968L61.8688 48.6839L62.0314 50.0347C62.0675 50.4331 62.0565 50.9026 61.9984 51.4434C61.9258 52.1194 61.9015 52.5902 61.9256 52.8558L62.0123 53.8118C62.1061 54.8476 62.2747 56.2648 62.5181 58.0635C62.6819 59.5749 62.9917 61.0731 63.4476 62.558C63.8142 63.9439 64.374 65.0981 65.127 66.0205C65.8558 66.972 66.7647 67.3983 67.8535 67.2997C68.305 67.2587 68.8411 66.9692 69.4617 66.431C70.1354 65.8879 70.6184 65.6032 70.9105 65.5767C71.2823 65.543 71.6855 65.7073 72.1199 66.0695C72.209 67.0522 71.9058 67.8428 71.2103 68.4413C70.5631 68.982 69.7675 69.362 68.8235 69.5814C68.2971 69.6827 67.8746 69.7478 67.5559 69.7766Z" fill="#FFF8DC"/>
<path d="M88.7411 67.9276C88.3154 67.9557 88.0174 67.8953 87.8472 67.7462C87.7036 67.5953 87.5902 67.2955 87.5071 66.8467L86.6491 59.3269L86.6151 58.2067L86.4096 54.4921C86.1545 50.6339 85.9494 47.7344 85.7943 45.7938C85.7255 45.1569 85.6163 43.7076 85.4668 41.4459L85.4011 39.8468C85.3818 39.5541 85.3171 39.3846 85.2071 39.3385C85.0954 39.2657 84.7983 39.2185 84.3159 39.197C83.7802 39.1789 83.3926 39.1778 83.1531 39.1937C82.4081 39.2429 81.7126 39.4359 81.0668 39.7726C80.9317 40.1557 80.8896 40.9335 80.9404 42.106C80.9912 43.2785 81.073 44.7163 81.1856 46.4192C81.1853 46.8201 81.3139 48.5621 81.5712 51.6452L81.785 54.8781C81.8184 55.3837 81.92 56.1119 82.0898 57.0628C82.2701 58.1733 82.3796 59.0212 82.4183 59.6066C82.4429 59.9791 82.448 60.4599 82.4335 61.0488L82.4754 62.2887L82.9758 66.8256C83.0004 67.1981 82.9125 67.4845 82.7119 67.6849C82.5114 67.8852 82.224 67.9844 81.8497 67.9824C81.1046 68.0317 80.7084 67.6971 80.6609 66.9786C80.556 64.1795 80.4103 61.3696 80.2238 58.5491L80.0997 56.6732C79.9093 54.6013 79.754 53.0615 79.6339 52.0539C79.5279 51.2591 79.3991 50.1185 79.2473 48.6319C79.0285 46.5351 78.7313 43.4547 78.3557 39.3906C78.3257 38.9383 78.3969 38.5995 78.5691 38.3743C78.7661 38.1208 79.0766 37.9666 79.5006 37.9119C82.2644 37.6757 84.3514 37.5109 85.7616 37.4177C86.2672 37.3843 86.6902 37.5166 87.0306 37.8148C87.3976 38.1113 87.5429 38.4892 87.4663 38.9486C87.4021 39.5942 87.3973 40.3294 87.4518 41.1543C87.4923 41.7663 87.5364 42.2311 87.5841 42.5486C87.6 42.7881 87.6193 43.0808 87.6422 43.4267C87.6917 43.7709 87.7181 44.17 87.7214 44.6241C87.7335 45.2112 87.7685 45.9439 87.8266 46.8219C87.9001 48.7413 87.9233 50.1027 87.8962 50.9062C87.9633 51.5165 88.055 52.4992 88.1713 53.8545C88.3125 55.1814 88.4282 56.1225 88.5184 56.6778C88.472 57.1886 88.4664 57.7101 88.5016 58.2423C88.542 58.8543 88.6843 59.7936 88.9284 61.0603C89.0964 61.9845 89.2113 62.7119 89.2731 63.2423L89.3764 64.1975C89.4859 65.0455 89.5538 65.669 89.5802 66.0682L89.5984 66.9489C89.6655 67.5591 89.3797 67.8854 88.7411 67.9276Z" fill="#FFF8DC"/>
<path d="M100.078 67.6201C99.8674 67.682 99.7086 67.7151 99.602 67.7194C99.2822 67.7323 98.8495 67.5897 98.3036 67.2915C98.1395 67.1913 98.0531 67.0347 98.0445 66.8215C98.0348 66.5817 98.1482 66.417 98.3848 66.3274C99.0157 66.0884 99.4418 65.7376 99.6633 65.2749C99.9104 64.7845 100.077 64.2841 100.163 63.7735C100.276 63.2619 100.355 62.8984 100.399 62.6831C100.809 60.9318 100.959 58.6973 100.849 55.9795C100.835 55.6331 100.84 55.0858 100.863 54.3376C100.888 53.6427 100.893 53.1087 100.878 52.7357C100.837 51.7231 100.75 50.2321 100.617 48.2625L100.487 46.026C100.322 43.2571 100.201 40.9267 100.124 39.0349C100.114 38.7685 100.112 38.3949 100.119 37.9142C100.153 37.4325 100.221 37.1361 100.323 37.0252C100.426 36.9144 100.569 36.8418 100.755 36.8076C100.94 36.7735 101.06 36.7553 101.113 36.7531C101.218 36.7222 101.509 36.6437 101.984 36.5178C102.485 36.3641 102.989 36.277 103.495 36.2566C103.761 36.2458 103.962 36.251 104.096 36.2723C104.34 36.3692 104.903 36.4398 105.786 36.4843C106.694 36.5009 107.201 36.5071 107.308 36.5028C107.415 36.4985 107.469 36.5363 107.473 36.6163C107.531 36.7473 107.594 36.9717 107.66 37.2892C107.697 37.5546 107.69 38.3689 107.639 39.7321L107.617 41.1742C107.658 42.1867 107.774 43.423 107.967 44.8831C108.169 46.5829 108.415 49.0284 108.704 52.2193C108.867 54.9349 109.002 56.9578 109.109 58.2879L109.559 63.4739L109.721 64.5083C109.793 64.9857 109.834 65.331 109.843 65.5442C109.852 65.784 109.808 65.9993 109.708 66.1901C109.609 66.3809 109.455 66.5206 109.245 66.6092C109.114 66.6678 108.915 66.7026 108.649 66.7133C108.302 66.7273 108.005 66.6326 107.757 66.4291C107.508 66.2256 107.374 65.8841 107.355 65.4045C107.321 63.9113 107.245 61.6859 107.125 58.7283C106.946 54.3053 106.575 50.0768 106.012 46.0429C105.898 45.1935 105.775 43.8107 105.644 41.8944C105.54 39.977 105.474 38.672 105.446 37.9792L102.17 38.1516C102.144 38.1527 102.154 38.4191 102.203 38.9509C102.251 39.4828 102.277 39.802 102.281 39.9085C102.302 41.082 102.367 43.0276 102.477 45.7454L102.571 48.0635C102.63 48.8618 102.658 49.5679 102.656 50.1818C102.68 50.768 102.7 51.2609 102.716 51.6606C102.723 52.4876 102.759 53.7005 102.823 55.2992C102.906 57.3509 102.869 59.4074 102.712 61.4687C102.621 62.5133 102.509 63.3851 102.377 64.0844C102.245 64.757 102.017 65.4067 101.696 66.0335C101.325 66.7691 100.786 67.2979 100.078 67.6201Z" fill="#FFF8DC"/>
<path d="M125.761 67.2538C125.041 67.264 124.385 67.0332 123.791 66.5616C123.198 66.0899 122.682 65.4437 122.244 64.6232C121.45 63.1942 120.849 61.2292 120.441 58.728C120.149 56.9986 119.921 55.0016 119.756 52.7371L119.686 50.6179L119.656 48.4581C119.619 47.7652 119.594 46.9255 119.58 45.9389C119.558 44.339 119.604 42.9249 119.72 41.6965C119.809 40.4151 120.058 39.1448 120.467 37.8856C120.878 36.7863 121.48 36.0044 122.274 35.5399C122.751 35.3198 123.229 35.2064 123.709 35.1996C125.122 35.1797 126.25 35.7238 127.092 36.832C128.017 38.0725 128.636 39.4639 128.951 41.0062C129.404 42.8667 129.67 44.6498 129.747 46.3556C129.88 48.2472 129.959 50.0329 129.983 51.7128L130.015 53.9925C130.021 54.4458 129.966 55.3 129.851 56.5551C129.758 57.5432 129.717 58.3838 129.726 59.0771L129.729 59.2371C129.579 59.9859 129.512 60.867 129.526 61.8802C129.536 62.6268 129.387 63.4023 129.079 64.2068C128.77 65.0112 128.326 65.6975 127.748 66.2657C127.17 66.9139 126.508 67.2433 125.761 67.2538ZM125.81 65.0529C126.344 65.0454 126.79 64.5457 127.149 63.5539C127.457 62.6695 127.668 61.5997 127.784 60.3446C127.926 59.0625 128.039 57.6208 128.123 56.0194C128.167 55.3254 128.181 54.4318 128.165 53.3386L128.073 49.6595C128 48.2204 127.814 46.4228 127.517 44.2668C127.278 42.43 126.855 40.8091 126.249 39.4042C125.973 38.7414 125.632 38.2261 125.227 37.8585C124.821 37.4908 124.392 37.3102 123.939 37.3166C123.272 37.326 122.786 37.8529 122.481 38.8973C122.097 39.9961 121.847 41.1998 121.732 42.5082C121.592 43.9236 121.518 45.2715 121.509 46.5517L121.488 47.8722C121.466 48.2459 121.46 48.7527 121.469 49.3926L121.471 49.5526C121.496 51.3391 121.714 53.5362 122.124 56.144C122.601 59.6843 123.263 62.1952 124.111 63.6768C124.657 64.6025 125.224 65.0612 125.81 65.0529Z" fill="#FFF8DC"/>
<path d="M142.963 65.9494C142.377 65.8874 141.914 65.6672 141.572 65.2888C141.232 64.8837 141.066 64.3746 141.075 63.7613L141.088 62.8814C141.091 62.6681 141.095 62.4148 141.099 62.1215C141.13 61.8019 141.136 61.442 141.115 61.0416L140.823 53.7165L140.771 51.8355C140.742 50.1283 140.708 48.8743 140.666 48.0736L140.537 45.9514C140.404 44.136 140.318 42.7745 140.278 41.8672C140.235 41.1465 140.233 39.4663 140.272 36.8265L140.237 36.466C140.242 36.1727 140.338 35.9741 140.526 35.8702C140.715 35.7396 141.035 35.691 141.488 35.7244C141.675 35.7538 141.873 35.85 142.084 36.0132C142.322 36.15 142.494 36.2459 142.6 36.3008C142.732 36.4094 142.796 36.5437 142.794 36.7037C142.792 36.837 142.777 36.9568 142.749 37.0631C142.72 37.1693 142.706 37.2758 142.704 37.3825C142.703 39.2227 142.691 41.8894 142.666 45.3828C142.668 48.8498 142.664 50.0366 142.653 48.943C142.674 49.3433 142.679 49.9568 142.666 50.7834C142.684 51.397 142.699 52.1707 142.712 53.1043C142.725 54.0113 142.763 55.0653 142.826 56.2663C142.885 57.6273 143.026 59.8297 143.248 62.8733L143.35 64.1149L146.75 64.165L146.853 57.1658C146.892 54.5261 146.914 52.1261 146.919 49.966C146.924 47.7791 146.904 45.5653 146.857 43.3243C146.789 40.6564 146.761 38.9358 146.773 38.1625C146.701 37.6014 146.665 37.3075 146.666 37.2809C146.669 37.0942 146.697 36.9613 146.752 36.8821C146.945 36.4582 147.254 36.2494 147.681 36.2557C147.894 36.2589 148.12 36.3422 148.357 36.5057C148.754 36.7782 148.946 37.2745 148.936 37.9944C148.903 38.4206 148.863 39.2735 148.818 40.5529C148.799 41.8328 148.78 43.1127 148.761 44.3925L148.656 51.5118L148.601 55.2313C148.58 56.6712 148.583 58.2847 148.61 60.072C148.637 61.8593 148.657 63.2197 148.67 64.1533C148.669 64.2067 148.882 64.2631 149.307 64.3227C149.734 64.3557 150.187 64.3757 150.667 64.3828C151.253 64.3914 151.76 64.3722 152.188 64.3252C152.191 64.1119 152.207 63.8988 152.237 63.6859C152.267 63.4463 152.284 63.2198 152.287 63.0065L152.415 54.3675C152.45 51.9411 152.451 50.1142 152.415 48.8869L152.314 44.885C152.25 43.8172 152.206 41.3896 152.182 37.6022L152.152 36.9217C152.157 36.5484 152.255 36.2431 152.445 36.0059C152.77 35.6907 153.052 35.5348 153.292 35.5384C153.506 35.5415 153.718 35.638 153.928 35.8278C154.245 36.0725 154.371 36.541 154.307 37.2335C154.19 37.9785 154.128 38.5243 154.123 38.871L154.197 42.0324C154.23 43.4197 154.241 44.4733 154.23 45.1932L154.32 58.076L154.282 60.6357C154.258 62.3155 154.292 63.5828 154.386 64.4376C154.433 64.865 154.294 65.263 153.969 65.6316C153.67 66.0006 153.294 66.1817 152.841 66.175L142.963 65.9494Z" fill="#FFF8DC"/>
<path d="M172.182 67.476C171.835 67.4611 171.575 67.3164 171.4 67.042C171.25 66.7954 171.183 66.4855 171.199 66.1125C171.439 60.5444 171.534 55.8374 171.486 51.9918C170.851 51.8578 170.4 51.785 170.134 51.7736C169.042 51.7266 168.252 51.7861 167.764 51.952C167.7 53.444 167.723 55.7004 167.834 58.7212C167.909 61.9274 167.919 64.1966 167.861 65.5287C167.85 65.7951 167.759 66.0448 167.589 66.2777C167.42 66.4839 167.215 66.5819 166.976 66.5716C166.629 66.5567 166.336 65.9302 166.096 64.6921C165.747 62.8621 165.564 59.0507 165.546 53.258C165.528 49.3336 165.615 45.1201 165.809 40.6176C165.818 39.7905 165.855 38.6177 165.92 37.0991C165.941 36.6196 166.178 36.3895 166.63 36.409C166.897 36.4204 167.16 36.4985 167.421 36.6431C167.708 36.789 167.915 36.9446 168.042 37.1102C167.898 37.9582 167.802 38.955 167.753 40.1006C167.705 41.2196 167.7 42.5806 167.738 44.1837C167.739 46.0254 167.719 47.4125 167.679 48.345L167.648 49.0643C167.612 49.2763 167.588 49.5289 167.575 49.8219C167.564 50.0883 167.576 50.4358 167.611 50.8644C167.771 50.8713 168.038 50.8694 168.412 50.8588C168.786 50.8482 169.161 50.8242 169.536 50.787C170.418 50.7448 171.073 50.7329 171.499 50.7513C171.599 48.4334 171.664 46.2876 171.696 44.3138L171.903 37.6365L171.949 36.5575C172.295 36.5724 172.599 36.6521 172.86 36.7968C173.121 36.9148 173.315 37.0699 173.44 37.2621C173.667 37.5655 173.792 38.078 173.814 38.7996L173.775 39.7188C173.676 42.01 173.621 46.3984 173.61 52.8838C173.597 58.7554 173.528 63.1565 173.402 66.0871C173.386 66.4601 173.252 66.788 173 67.0707C172.774 67.3546 172.501 67.4897 172.182 67.476Z" fill="#FFF8DC"/>
<path d="M189.218 68.9742C188.5 68.9253 187.864 68.6415 187.311 68.1228C186.759 67.6041 186.298 66.9178 185.928 66.0641C185.254 64.5749 184.816 62.5672 184.614 60.041C184.466 58.2935 184.402 56.2846 184.423 54.0141L184.527 51.8963L184.673 49.7413C184.694 49.0477 184.738 48.2087 184.805 47.2243C184.913 45.628 185.076 44.2225 185.292 43.0077C185.485 41.7379 185.837 40.4923 186.348 39.2708C186.848 38.209 187.512 37.4791 188.341 37.0811C188.835 36.9008 189.321 36.827 189.8 36.8596C191.21 36.9556 192.289 37.5903 193.038 38.7638C193.857 40.0758 194.361 41.5134 194.549 43.0764C194.848 44.9677 194.966 46.7665 194.903 48.4729C194.881 50.3691 194.813 52.1553 194.699 53.8314L194.544 56.1061C194.513 56.5584 194.389 57.4052 194.171 58.6466C193.997 59.6238 193.887 60.4582 193.84 61.15L193.829 61.3096C193.619 62.0437 193.479 62.9162 193.41 63.9272C193.36 64.6721 193.148 65.4328 192.774 66.2093C192.4 66.9857 191.902 67.6333 191.279 68.1522C190.65 68.7509 189.963 69.0249 189.218 68.9742ZM189.447 66.7847C189.979 66.8209 190.465 66.3595 190.905 65.4005C191.284 64.5442 191.582 63.4954 191.8 62.254C192.047 60.9878 192.278 59.5602 192.493 57.9711C192.593 57.283 192.68 56.3936 192.754 55.3028L192.964 51.6285C193.009 50.1882 192.972 48.3815 192.852 46.2084C192.764 44.3582 192.476 42.7081 191.986 41.2582C191.765 40.575 191.468 40.0335 191.094 39.6339C190.721 39.2343 190.308 39.0191 189.855 38.9883C189.19 38.943 188.663 39.4283 188.273 40.4442C187.8 41.5078 187.452 42.687 187.23 43.9816C186.975 45.3808 186.79 46.718 186.677 47.9932L186.547 49.3075C186.495 49.6781 186.447 50.1827 186.404 50.8212L186.393 50.9809C186.272 52.7634 186.309 54.971 186.504 57.6037C186.689 61.1711 187.143 63.7279 187.866 65.2739C188.335 66.2413 188.862 66.7449 189.447 66.7847Z" fill="#FFF8DC"/>
<path d="M206.14 69.4308C205.636 69.3844 205.204 69.2777 204.844 69.1108C204.405 68.9365 204.214 68.544 204.27 67.9333L206.397 44.7908C206.438 44.3394 206.421 43.6549 206.345 42.7374C206.235 41.8971 206.204 41.2114 206.253 40.6804L206.264 40.5609C206.783 39.8588 207.159 39.4114 207.391 39.2184C207.763 39.2526 208.259 39.2447 208.88 39.1946C209.447 39.1396 209.943 39.1317 210.368 39.1707C210.793 39.2098 211.192 39.3804 211.566 39.6826C211.943 39.9582 212.115 40.2686 212.083 40.6138C212.01 41.4104 211.363 41.7526 210.141 41.6403L209.583 41.5891C209.427 41.5479 209.242 41.5175 209.029 41.498C208.79 41.476 208.643 41.4759 208.588 41.4975C208.505 42.4004 208.458 43.494 208.447 44.7784L208.424 45.901L208.302 48.0991C208.256 48.6037 208.145 49.3701 207.97 50.3984L207.686 52.6217L208.254 52.5534C208.8 52.4429 209.245 52.4035 209.591 52.4353C209.883 52.4621 210.137 52.606 210.354 52.867C210.574 53.1014 210.67 53.3646 210.643 53.6567C210.614 53.9754 210.481 54.2577 210.244 54.5038C210.036 54.7257 209.786 54.8232 209.494 54.7963L209.02 54.7126L208.502 54.665C208.104 54.6284 207.816 54.6957 207.64 54.8669L206.508 67.175L208.75 67.2606C210.264 67.3997 210.989 67.8145 210.925 68.5049L210.911 68.6642C210.722 68.9682 210.405 69.2069 209.961 69.3803C209.519 69.5271 209.097 69.6088 208.693 69.6253L207.375 69.5443L206.14 69.4308Z" fill="#FFF8DC"/>
<path d="M49.4 127.6C49.0533 127.6 48.7867 127.467 48.6 127.2C48.44 126.96 48.36 126.653 48.36 126.28C48.36 120.707 48.2533 116 48.04 112.16C47.4 112.053 46.9467 112 46.68 112C45.5867 112 44.8 112.093 44.32 112.28C44.32 113.773 44.44 116.027 44.68 119.04C44.8933 122.24 45 124.507 45 125.84C45 126.107 44.92 126.36 44.76 126.6C44.6 126.813 44.4 126.92 44.16 126.92C43.8133 126.92 43.4933 126.307 43.2 125.08C42.7733 123.267 42.4267 119.467 42.16 113.68C41.9733 109.76 41.88 105.547 41.88 101.04C41.8533 100.213 41.84 99.04 41.84 97.52C41.84 97.04 42.0667 96.8 42.52 96.8C42.7867 96.8 43.0533 96.8667 43.32 97C43.6133 97.1333 43.8267 97.28 43.96 97.44C43.8533 98.2933 43.8 99.2933 43.8 100.44C43.8 101.56 43.8533 102.92 43.96 104.52C44.04 106.36 44.08 107.747 44.08 108.68V109.4C44.0533 109.613 44.04 109.867 44.04 110.16C44.04 110.427 44.0667 110.773 44.12 111.2C44.28 111.2 44.5467 111.187 44.92 111.16C45.2933 111.133 45.6667 111.093 46.04 111.04C46.92 110.96 47.5733 110.92 48 110.92C48 108.6 47.9733 106.453 47.92 104.48L47.84 97.8V96.72C48.1867 96.72 48.4933 96.7867 48.76 96.92C49.0267 97.0267 49.2267 97.1733 49.36 97.36C49.6 97.6533 49.7467 98.16 49.8 98.88V99.8C49.8 102.093 49.9333 106.48 50.2 112.96C50.44 118.827 50.56 123.227 50.56 126.16C50.56 126.533 50.44 126.867 50.2 127.16C49.9867 127.453 49.72 127.6 49.4 127.6ZM64.7231 127C64.2965 127 63.9765 126.92 63.7631 126.76C63.5765 126.6 63.4831 126.333 63.4831 125.96V120.72C63.1365 120.48 62.4831 120.267 61.5231 120.08C60.5631 119.893 59.6565 119.773 58.8031 119.72C58.5098 120.28 58.2965 120.96 58.1631 121.76L58.0031 122.56C57.9765 122.747 57.8965 123.16 57.7631 123.8C57.6298 124.44 57.4831 125 57.3231 125.48C57.1631 125.933 57.0031 126.293 56.8431 126.56C55.8298 126.56 55.2431 126.293 55.0831 125.76C55.3765 125.333 55.7098 124.08 56.0831 122L57.4031 114.68C57.9898 111.213 58.5231 108.253 59.0031 105.8C59.5098 103.347 60.0431 101.293 60.6031 99.64C61.2165 97.8 61.8031 96.88 62.3631 96.88C62.9231 96.88 63.3498 96.9867 63.6431 97.2C63.6431 98.2667 63.8965 100.84 64.4031 104.92C64.9365 108.92 65.2031 111.653 65.2031 113.12C65.2031 114.533 65.3498 116.56 65.6431 119.2C65.9098 121.893 66.0431 124.04 66.0431 125.64C66.0431 126.547 65.6031 127 64.7231 127ZM62.6431 118.4C62.8565 118.4 63.1231 118.36 63.4431 118.28C63.3631 117.107 63.2298 115.653 63.0431 113.92C62.4298 107.893 62.1231 104.2 62.1231 102.84V102.52C61.8565 102.787 61.4831 104 61.0031 106.16C60.5498 108.293 60.1231 110.587 59.7231 113.04C59.3231 115.493 59.1098 117.12 59.0831 117.92C60.2031 118.24 61.3898 118.4 62.6431 118.4ZM83.8275 131.16C83.5875 131.16 83.3475 131.027 83.1075 130.76C82.8942 130.52 82.7875 130.24 82.7875 129.92C82.7875 129.467 82.8675 128.2 83.0275 126.12C82.4408 125.96 81.8542 125.88 81.2675 125.88C80.7075 125.88 79.9208 125.947 78.9075 126.08L77.9475 126.2C76.0008 126.413 74.4675 126.56 73.3475 126.64C73.2408 126.64 72.5342 126.68 71.2275 126.76C71.2275 127.027 71.2275 127.413 71.2275 127.92C71.2542 128.427 71.2542 128.84 71.2275 129.16C71.2008 129.507 71.0942 129.787 70.9075 130C70.7475 130.213 70.5475 130.32 70.3075 130.32C70.1742 130.32 70.0008 130.267 69.7875 130.16C69.5742 129.973 69.3475 129.613 69.1075 129.08C69.0542 128.92 69.0275 128.347 69.0275 127.36L68.9875 126.28C68.9608 126.067 69.0675 125.84 69.3075 125.6C69.5475 125.333 69.8808 125.187 70.3075 125.16C71.5075 125.08 72.2808 124.4 72.6275 123.12C72.8142 122.507 72.9875 121.773 73.1475 120.92C73.3075 120.04 73.4142 119.267 73.4675 118.6C73.8408 115.08 74.0275 112.387 74.0275 110.52C74.0275 109.88 74.0008 108.947 73.9475 107.72C73.8942 106.867 73.8675 106.24 73.8675 105.84C73.8675 104.72 73.8542 103.88 73.8275 103.32C73.8275 101.053 73.8008 99.6133 73.7475 99C73.6942 98.4667 73.7875 98.0267 74.0275 97.68C74.2675 97.3067 74.6408 97.0933 75.1475 97.04C76.4275 96.9067 77.2008 96.84 77.4675 96.84C78.0275 96.84 78.5208 96.9067 78.9475 97.04C79.1342 97.0933 79.2942 97.12 79.4275 97.12C79.5875 97.12 79.7075 97.1333 79.7875 97.16C80.2942 97.2133 80.6408 97.32 80.8275 97.48C81.0408 97.64 81.1475 98.0267 81.1475 98.64L81.1075 101.4C81.1075 102.013 81.1208 102.467 81.1475 102.76C81.2275 105.667 81.3742 110.147 81.5875 116.2L81.6275 117.28C81.6808 118.64 81.7475 120.027 81.8275 121.44C81.9075 122.827 82.0142 123.8 82.1475 124.36C83.1342 124.36 83.8808 124.427 84.3875 124.56C84.9208 124.693 85.1875 125.027 85.1875 125.56C85.1875 125.693 85.1742 125.8 85.1475 125.88C85.0675 126.413 84.9875 127 84.9075 127.64C84.8275 128.28 84.7742 128.827 84.7475 129.28C84.7208 129.413 84.7075 129.667 84.7075 130.04C84.7075 130.413 84.6408 130.693 84.5075 130.88C84.4008 131.067 84.1742 131.16 83.8275 131.16ZM74.2275 124.84C75.4008 124.733 76.3608 124.667 77.1075 124.64L79.9475 124.44C80.0008 123.853 80.0275 123.427 80.0275 123.16C80.0275 122.787 80.0008 122.147 79.9475 121.24C79.9475 121.053 79.9208 120.747 79.8675 120.32C79.8408 119.893 79.8275 119.507 79.8275 119.16L79.5475 112.8V108.84L79.0675 99.64C79.0675 99.2133 79.0275 98.88 78.9475 98.64C78.6542 98.5067 78.1742 98.44 77.5075 98.44C76.9208 98.44 76.3608 98.48 75.8275 98.56V104.84V107.88C75.7475 111.507 75.6142 114.72 75.4275 117.52C75.3475 118.827 75.1742 120.187 74.9075 121.6C74.6675 123.013 74.4408 124.093 74.2275 124.84ZM89.82 127.24C89.4467 127.24 89.1533 127.133 88.94 126.92C88.7533 126.68 88.6867 126.387 88.74 126.04L90.22 120.76C90.2467 120.653 90.26 120.507 90.26 120.32C90.26 120.133 90.2467 120 90.22 119.92L89.98 118.88C89.9 118.533 89.7667 117.973 89.58 117.2C89.42 116.4 89.2867 115.693 89.18 115.08C88.9933 114.253 88.7 112.52 88.3 109.88C87.9 107.213 87.5533 104.827 87.26 102.72L87.06 101.48C86.7667 99.8267 86.62 98.68 86.62 98.04C86.62 97.5067 86.6867 97.16 86.82 97C86.9533 96.8667 87.1533 96.8 87.42 96.8C87.6333 96.8 87.8467 96.84 88.06 96.92C88.3 96.9733 88.4867 97.0533 88.62 97.16C88.78 97.32 88.86 97.5867 88.86 97.96L88.82 98.76C88.82 98.8933 88.98 99.8667 89.3 101.68L89.7 104.28C89.6733 105.053 89.7 105.84 89.78 106.64C89.8867 107.44 90.0467 108.4 90.26 109.52C90.3133 109.733 90.3667 110 90.42 110.32C90.58 111.253 90.74 112.6 90.9 114.36C90.9267 114.68 90.9667 115.053 91.02 115.48C91.0733 115.907 91.1133 116.227 91.14 116.44C91.4067 115.08 91.6333 113.44 91.82 111.52C91.82 111.307 91.8467 111.013 91.9 110.64C92.06 109.067 92.2467 106.8 92.46 103.84C92.5133 103.387 92.5667 102.573 92.62 101.4L92.7 99.96C92.7533 99.5867 92.78 99.2267 92.78 98.88C92.78 98.8 92.78 98.6133 92.78 98.32C92.8067 98 92.8467 97.7333 92.9 97.52C92.9533 97.3067 93.0333 97.1333 93.14 97C93.3 96.76 93.58 96.64 93.98 96.64C94.46 96.64 94.86 96.7733 95.18 97.04C95.3667 97.2 95.46 97.4667 95.46 97.84C95.46 98.08 95.4467 98.3067 95.42 98.52C95.3933 98.7067 95.3667 98.88 95.34 99.04C95.18 100.427 95.0067 102.093 94.82 104.04L94.34 108.48C94.26 109.093 94.14 110.067 93.98 111.4C93.58 115.08 93.22 117.747 92.9 119.4C92.7933 120.093 92.5267 121.32 92.1 123.08C91.6733 124.84 91.4067 125.853 91.3 126.12C91.22 126.44 91.0467 126.707 90.78 126.92C90.5133 127.133 90.1933 127.24 89.82 127.24ZM102.127 127.32C100.9 127.32 100.287 126.987 100.287 126.32L100.367 121.4L100.447 116.48C100.447 114.693 100.407 111.987 100.327 108.36C100.247 104.76 100.207 102.053 100.207 100.24V100C100.207 99.3067 100.274 98.6667 100.407 98.08C100.567 97.36 100.994 97 101.687 97C103.554 97 105.034 97.6 106.127 98.8C107.22 100 107.767 101.587 107.767 103.56C107.767 104.76 107.447 106.013 106.807 107.32C106.167 108.627 105.407 109.6 104.527 110.24C106.074 111.28 107.207 112.627 107.927 114.28C108.674 115.907 109.047 117.707 109.047 119.68C109.047 120.613 108.727 121.773 108.087 123.16C107.314 124.813 106.26 126 104.927 126.72C104.127 127.12 103.247 127.32 102.287 127.32H102.127ZM102.527 109.64C103.22 109.48 103.807 108.907 104.287 107.92C104.687 107.173 105.06 106.267 105.407 105.2C105.487 104.907 105.62 104.533 105.807 104.08V102.68C105.807 101.88 105.514 101.107 104.927 100.36C104.34 99.6133 103.674 99.24 102.927 99.24C102.554 99.24 102.367 99.6533 102.367 100.48C102.367 102.24 102.394 103.813 102.447 105.2L102.527 109.64ZM102.687 125.24C103.994 125.053 105.034 124.453 105.807 123.44C106.58 122.427 106.967 121.213 106.967 119.8C106.967 118.573 106.86 117.453 106.647 116.44C106.46 115.4 106.207 114.613 105.887 114.08C105.594 113.573 105.3 113.147 105.007 112.8C104.714 112.453 104.46 112.227 104.247 112.12L103.927 112H102.487C102.62 115.067 102.687 119.48 102.687 125.24ZM121.945 127C121.518 127 121.198 126.92 120.985 126.76C120.798 126.6 120.705 126.333 120.705 125.96V120.72C120.358 120.48 119.705 120.267 118.745 120.08C117.785 119.893 116.878 119.773 116.025 119.72C115.732 120.28 115.518 120.96 115.385 121.76L115.225 122.56C115.198 122.747 115.118 123.16 114.985 123.8C114.852 124.44 114.705 125 114.545 125.48C114.385 125.933 114.225 126.293 114.065 126.56C113.052 126.56 112.465 126.293 112.305 125.76C112.598 125.333 112.932 124.08 113.305 122L114.625 114.68C115.212 111.213 115.745 108.253 116.225 105.8C116.732 103.347 117.265 101.293 117.825 99.64C118.438 97.8 119.025 96.88 119.585 96.88C120.145 96.88 120.572 96.9867 120.865 97.2C120.865 98.2667 121.118 100.84 121.625 104.92C122.158 108.92 122.425 111.653 122.425 113.12C122.425 114.533 122.572 116.56 122.865 119.2C123.132 121.893 123.265 124.04 123.265 125.64C123.265 126.547 122.825 127 121.945 127ZM119.865 118.4C120.078 118.4 120.345 118.36 120.665 118.28C120.585 117.107 120.452 115.653 120.265 113.92C119.652 107.893 119.345 104.2 119.345 102.84V102.52C119.078 102.787 118.705 104 118.225 106.16C117.772 108.293 117.345 110.587 116.945 113.04C116.545 115.493 116.332 117.12 116.305 117.92C117.425 118.24 118.612 118.4 119.865 118.4ZM132.209 127.28C131.809 127.28 131.489 127.093 131.249 126.72C131.036 126.32 130.929 125.84 130.929 125.28C130.929 124.4 130.983 123.32 131.089 122.04L131.169 121L131.249 118.88C131.249 117.947 131.156 115.867 130.969 112.64C130.783 109.413 130.689 107.333 130.689 106.4C130.689 106.32 130.689 106.173 130.689 105.96C130.716 105.72 130.729 105.36 130.729 104.88C130.756 104.347 130.769 103.693 130.769 102.92C130.769 100.973 130.636 99.7333 130.369 99.2C130.209 99.2 129.863 99.24 129.329 99.32L128.209 99.4C127.863 99.4 127.556 99.3067 127.289 99.12C127.023 98.9067 126.889 98.64 126.889 98.32C126.889 98 127.209 97.72 127.849 97.48C128.783 97.16 130.369 96.9333 132.609 96.8C133.516 96.7467 134.063 96.72 134.249 96.72C134.569 96.72 134.863 96.8267 135.129 97.04C135.396 97.2533 135.529 97.52 135.529 97.84C135.529 98.16 135.409 98.4267 135.169 98.64C134.956 98.8267 134.676 98.92 134.329 98.92L133.609 98.88C133.396 98.8533 133.156 98.84 132.889 98.84H132.489C132.676 100.653 132.769 102.293 132.769 103.76L132.729 106.32C132.703 107.093 132.689 107.96 132.689 108.92C132.689 110.2 132.743 111.733 132.849 113.52C132.983 115.733 133.049 117.267 133.049 118.12C133.049 119.133 133.103 120.333 133.209 121.72C133.316 123.133 133.369 124.333 133.369 125.32C133.369 126.627 132.983 127.28 132.209 127.28ZM143.158 127.24C142.651 127.24 142.211 127.173 141.838 127.04C141.385 126.907 141.158 126.533 141.158 125.92V102.68C141.158 102.227 141.078 101.547 140.918 100.64C140.731 99.8133 140.638 99.1333 140.638 98.6V98.48C141.091 97.7333 141.425 97.2533 141.638 97.04C142.011 97.04 142.505 96.9867 143.118 96.88C143.678 96.7733 144.171 96.72 144.598 96.72C145.025 96.72 145.438 96.8533 145.838 97.12C146.238 97.36 146.438 97.6533 146.438 98C146.438 98.8 145.825 99.2 144.598 99.2H144.038C143.878 99.1733 143.691 99.16 143.478 99.16C143.238 99.16 143.091 99.1733 143.038 99.2C143.038 100.107 143.091 101.2 143.198 102.48L143.278 103.6L143.358 105.8C143.358 106.307 143.318 107.08 143.238 108.12L143.158 110.36L143.718 110.24C144.251 110.08 144.691 110 145.038 110C145.331 110 145.598 110.12 145.838 110.36C146.078 110.573 146.198 110.827 146.198 111.12C146.198 111.44 146.091 111.733 145.878 112C145.691 112.24 145.451 112.36 145.158 112.36L144.678 112.32H144.158C143.758 112.32 143.478 112.413 143.318 112.6V124.96L145.558 124.84C147.078 124.84 147.838 125.187 147.838 125.88V126.04C147.678 126.36 147.385 126.627 146.958 126.84C146.531 127.027 146.118 127.147 145.718 127.2L144.398 127.24H143.158ZM153.611 127.72C153.398 127.773 153.238 127.8 153.131 127.8C152.811 127.8 152.384 127.64 151.851 127.32C151.691 127.213 151.611 127.053 151.611 126.84C151.611 126.6 151.731 126.44 151.971 126.36C152.611 126.147 153.051 125.813 153.291 125.36C153.558 124.88 153.744 124.387 153.851 123.88C153.984 123.373 154.078 123.013 154.131 122.8C154.611 121.067 154.851 118.84 154.851 116.12C154.851 115.773 154.878 115.227 154.931 114.48C154.984 113.787 155.011 113.253 155.011 112.88C155.011 111.867 154.984 110.373 154.931 108.4L154.891 106.16C154.838 103.387 154.811 101.053 154.811 99.16C154.811 98.8933 154.824 98.52 154.851 98.04C154.904 97.56 154.984 97.2667 155.091 97.16C155.198 97.0533 155.344 96.9867 155.531 96.96C155.718 96.9333 155.838 96.92 155.891 96.92C155.998 96.8933 156.291 96.8267 156.771 96.72C157.278 96.5867 157.784 96.52 158.291 96.52C158.558 96.52 158.758 96.5333 158.891 96.56C159.131 96.6667 159.691 96.76 160.571 96.84C161.478 96.8933 161.984 96.92 162.091 96.92C162.198 96.92 162.251 96.96 162.251 97.04C162.304 97.1733 162.358 97.4 162.411 97.72C162.438 97.9867 162.398 98.8 162.291 100.16L162.211 101.6C162.211 102.613 162.278 103.853 162.411 105.32C162.544 107.027 162.691 109.48 162.851 112.68C162.904 115.4 162.958 117.427 163.011 118.76L163.251 123.96L163.371 125C163.424 125.48 163.451 125.827 163.451 126.04C163.451 126.28 163.398 126.493 163.291 126.68C163.184 126.867 163.024 127 162.811 127.08C162.678 127.133 162.478 127.16 162.211 127.16C161.864 127.16 161.571 127.053 161.331 126.84C161.091 126.627 160.971 126.28 160.971 125.8C160.998 124.307 161.011 122.08 161.011 119.12C161.011 114.693 160.811 110.453 160.411 106.4C160.331 105.547 160.264 104.16 160.211 102.24C160.184 100.32 160.171 99.0133 160.171 98.32L156.891 98.36C156.864 98.36 156.864 98.6267 156.891 99.16C156.918 99.6933 156.931 100.013 156.931 100.12C156.904 101.293 156.891 103.24 156.891 105.96V108.28C156.918 109.08 156.918 109.787 156.891 110.4C156.891 110.987 156.891 111.48 156.891 111.88C156.864 112.707 156.851 113.92 156.851 115.52C156.851 117.573 156.731 119.627 156.491 121.68C156.358 122.72 156.211 123.587 156.051 124.28C155.891 124.947 155.638 125.587 155.291 126.2C154.891 126.92 154.331 127.427 153.611 127.72ZM171.164 127C170.711 127.027 170.284 126.853 169.884 126.48C169.511 126.107 169.324 125.68 169.324 125.2V123.88C169.324 121.987 169.338 120.613 169.364 119.76C169.364 119.2 169.364 118.653 169.364 118.12C169.391 117.56 169.391 117.147 169.364 116.88C169.231 116.08 169.164 115.093 169.164 113.92L169.204 111.64C169.231 110.92 169.218 109.84 169.164 108.4L169.124 107.28V99.32C169.098 98.6 169.151 98.04 169.284 97.64C169.444 97.2133 169.724 97 170.124 97C170.551 97 170.844 97.1733 171.004 97.52C171.164 97.84 171.244 98.2933 171.244 98.88L171.204 100.12L170.764 107.16L170.804 109.8C171.738 109.773 172.644 110.027 173.524 110.56C175.098 111.307 176.244 112.373 176.964 113.76C177.684 115.12 178.044 116.56 178.044 118.08C178.044 118.96 177.951 119.867 177.764 120.8C177.578 121.733 177.324 122.56 177.004 123.28C176.471 124.453 175.698 125.347 174.684 125.96C173.698 126.573 172.524 126.92 171.164 127ZM171.684 125C172.404 125 173.031 124.733 173.564 124.2C174.364 123.373 174.978 122.387 175.404 121.24C175.858 120.067 176.084 118.867 176.084 117.64C176.084 116.253 175.818 115.053 175.284 114.04C174.778 113.027 173.884 112.213 172.604 111.6C172.178 111.387 171.778 111.28 171.404 111.28C171.218 111.28 171.004 111.32 170.764 111.4L171.484 121.92L171.684 125ZM188.475 127.64C187.728 127.64 187.035 127.467 186.395 127.12C185.781 126.773 185.248 126.307 184.795 125.72C184.395 125.16 184.035 124.453 183.715 123.6C183.395 122.72 183.155 121.813 182.995 120.88C182.675 119.307 182.461 117.24 182.355 114.68C182.328 114.067 182.315 113.013 182.315 111.52V109C182.341 108.28 182.355 107.533 182.355 106.76C182.355 105.187 182.448 103.947 182.635 103.04C182.555 102.64 182.515 102.227 182.515 101.8C182.515 100.2 183.115 98.9067 184.315 97.92C185.515 96.9333 187.035 96.44 188.875 96.44C189.568 96.44 190.208 96.6267 190.795 97C191.381 97.3733 191.675 97.84 191.675 98.4C191.675 98.6667 191.568 98.88 191.355 99.04C191.141 99.2 190.875 99.28 190.555 99.28C190.288 99.28 189.995 99.24 189.675 99.16C189.381 99.08 189.195 98.96 189.115 98.8H188.595V98.72C187.608 98.72 186.781 98.9333 186.115 99.36C185.635 99.7067 185.261 100.28 184.995 101.08C184.888 101.373 184.808 101.747 184.755 102.2C184.701 102.653 184.675 103.067 184.675 103.44C184.648 103.653 184.635 104.08 184.635 104.72L184.715 106.12L184.755 107.48C184.755 107.88 184.701 108.347 184.595 108.88C184.461 109.547 184.395 110.013 184.395 110.28V111.24C184.395 112.28 184.435 113.707 184.515 115.52C184.541 117.04 184.715 118.56 185.035 120.08C185.275 121.493 185.728 122.693 186.395 123.68C187.035 124.693 187.901 125.2 188.995 125.2C189.448 125.2 190.008 124.96 190.675 124.48C191.395 124 191.901 123.76 192.195 123.76C192.568 123.76 192.955 123.96 193.355 124.36C193.355 125.347 192.981 126.107 192.235 126.64C191.541 127.12 190.715 127.427 189.755 127.56C189.221 127.613 188.795 127.64 188.475 127.64ZM200.631 127.28C200.231 127.28 199.911 127.093 199.671 126.72C199.458 126.32 199.351 125.84 199.351 125.28C199.351 124.4 199.405 123.32 199.511 122.04L199.591 121L199.671 118.88C199.671 117.947 199.578 115.867 199.391 112.64C199.205 109.413 199.111 107.333 199.111 106.4C199.111 106.32 199.111 106.173 199.111 105.96C199.138 105.72 199.151 105.36 199.151 104.88C199.178 104.347 199.191 103.693 199.191 102.92C199.191 100.973 199.058 99.7333 198.791 99.2C198.631 99.2 198.285 99.24 197.751 99.32L196.631 99.4C196.285 99.4 195.978 99.3067 195.711 99.12C195.445 98.9067 195.311 98.64 195.311 98.32C195.311 98 195.631 97.72 196.271 97.48C197.205 97.16 198.791 96.9333 201.031 96.8C201.938 96.7467 202.485 96.72 202.671 96.72C202.991 96.72 203.285 96.8267 203.551 97.04C203.818 97.2533 203.951 97.52 203.951 97.84C203.951 98.16 203.831 98.4267 203.591 98.64C203.378 98.8267 203.098 98.92 202.751 98.92L202.031 98.88C201.818 98.8533 201.578 98.84 201.311 98.84H200.911C201.098 100.653 201.191 102.293 201.191 103.76L201.151 106.32C201.125 107.093 201.111 107.96 201.111 108.92C201.111 110.2 201.165 111.733 201.271 113.52C201.405 115.733 201.471 117.267 201.471 118.12C201.471 119.133 201.525 120.333 201.631 121.72C201.738 123.133 201.791 124.333 201.791 125.32C201.791 126.627 201.405 127.28 200.631 127.28ZM211.18 127.32C209.953 127.32 209.34 126.987 209.34 126.32L209.42 121.4L209.5 116.48C209.5 114.693 209.46 111.987 209.38 108.36C209.3 104.76 209.26 102.053 209.26 100.24V100C209.26 99.3067 209.327 98.6667 209.46 98.08C209.62 97.36 210.047 97 210.74 97C212.607 97 214.087 97.6 215.18 98.8C216.273 100 216.82 101.587 216.82 103.56C216.82 104.76 216.5 106.013 215.86 107.32C215.22 108.627 214.46 109.6 213.58 110.24C215.127 111.28 216.26 112.627 216.98 114.28C217.727 115.907 218.1 117.707 218.1 119.68C218.1 120.613 217.78 121.773 217.14 123.16C216.367 124.813 215.313 126 213.98 126.72C213.18 127.12 212.3 127.32 211.34 127.32H211.18ZM211.58 109.64C212.273 109.48 212.86 108.907 213.34 107.92C213.74 107.173 214.113 106.267 214.46 105.2C214.54 104.907 214.673 104.533 214.86 104.08V102.68C214.86 101.88 214.567 101.107 213.98 100.36C213.393 99.6133 212.727 99.24 211.98 99.24C211.607 99.24 211.42 99.6533 211.42 100.48C211.42 102.24 211.447 103.813 211.5 105.2L211.58 109.64ZM211.74 125.24C213.047 125.053 214.087 124.453 214.86 123.44C215.633 122.427 216.02 121.213 216.02 119.8C216.02 118.573 215.913 117.453 215.7 116.44C215.513 115.4 215.26 114.613 214.94 114.08C214.647 113.573 214.353 113.147 214.06 112.8C213.767 112.453 213.513 112.227 213.3 112.12L212.98 112H211.54C211.673 115.067 211.74 119.48 211.74 125.24ZM228.318 128.12C227.598 128.12 226.945 127.88 226.358 127.4C225.771 126.92 225.265 126.267 224.838 125.44C224.065 124 223.491 122.027 223.118 119.52C222.851 117.787 222.651 115.787 222.518 113.52L222.478 111.4V109.24C222.451 108.547 222.438 107.707 222.438 106.72C222.438 105.12 222.505 103.707 222.638 102.48C222.745 101.2 223.011 99.9333 223.438 98.68C223.865 97.5867 224.478 96.8133 225.278 96.36C225.758 96.1467 226.238 96.04 226.718 96.04C228.131 96.04 229.251 96.6 230.078 97.72C230.985 98.9733 231.585 100.373 231.878 101.92C232.305 103.787 232.545 105.573 232.598 107.28C232.705 109.173 232.758 110.96 232.758 112.64V114.92C232.758 115.373 232.691 116.227 232.558 117.48C232.451 118.467 232.398 119.307 232.398 120V120.16C232.238 120.907 232.158 121.787 232.158 122.8C232.158 123.547 231.998 124.32 231.678 125.12C231.358 125.92 230.905 126.6 230.318 127.16C229.731 127.8 229.065 128.12 228.318 128.12ZM228.398 125.92C228.931 125.92 229.385 125.427 229.758 124.44C230.078 123.56 230.305 122.493 230.438 121.24C230.598 119.96 230.731 118.52 230.838 116.92C230.891 116.227 230.918 115.333 230.918 114.24L230.878 110.56C230.825 109.12 230.665 107.32 230.398 105.16C230.185 103.32 229.785 101.693 229.198 100.28C228.931 99.6133 228.598 99.0933 228.198 98.72C227.798 98.3467 227.371 98.16 226.918 98.16C226.251 98.16 225.758 98.68 225.438 99.72C225.038 100.813 224.771 102.013 224.638 103.32C224.478 104.733 224.385 106.08 224.358 107.36L224.318 108.68C224.291 109.053 224.278 109.56 224.278 110.2V110.36C224.278 112.147 224.465 114.347 224.838 116.96C225.265 120.507 225.891 123.027 226.718 124.52C227.251 125.453 227.811 125.92 228.398 125.92Z" fill="white"/>
<path d="M49 86L92.5 80L134.5 86L176 80L217 86" stroke="#FFF8DC"/>
<defs>
<linearGradient id="paint0_linear" x1="133" y1="0" x2="133" y2="337.082" gradientUnits="userSpaceOnUse">
<stop offset="0.139751" stop-color="#DB7093"/>
<stop offset="1" stop-color="#DB7093" stop-opacity="0"/>
</linearGradient>
</defs>
</svg>
